<svg width="32" height="31" viewBox="0 0 32 31" fill="none" xmlns="http://www.w3.org/2000/svg">
<path d="M15.4593 1.01659C15.8597 0.501223 16.6384 0.501224 17.0387 1.01659L18.027 2.28876C18.3375 2.68844 18.8976 2.79314 19.3315 2.53261L20.7126 1.70335C21.2721 1.36741 21.9982 1.64871 22.1853 2.27391L22.6473 3.81717C22.7924 4.30201 23.2769 4.60198 23.7756 4.51579L25.363 4.24143C26.0061 4.13028 26.5815 4.6549 26.5302 5.30548L26.4035 6.91141C26.3637 7.41594 26.7071 7.87067 27.2032 7.97045L28.7825 8.28804C29.4223 8.4167 29.7694 9.11379 29.4865 9.70189L28.7882 11.1536C28.5689 11.6097 28.7248 12.1577 29.1514 12.43L30.5094 13.2967C31.0595 13.6478 31.1313 14.4232 30.6551 14.8694L29.4795 15.9708C29.1102 16.3168 29.0576 16.8842 29.3571 17.2922L30.3102 18.5909C30.6964 19.117 30.4833 19.866 29.878 20.11L28.3839 20.7124C27.9146 20.9017 27.6606 21.4117 27.7924 21.9004L28.2121 23.4557C28.3821 24.0857 27.9128 24.7072 27.2602 24.7161L25.6495 24.7381C25.1434 24.745 24.7223 25.1289 24.6688 25.6321L24.4982 27.234C24.4292 27.8829 23.7671 28.2929 23.1554 28.0655L21.6454 27.5041C21.1711 27.3277 20.6397 27.5336 20.408 27.9835L19.6703 29.4156C19.3715 29.9957 18.606 30.1388 18.1178 29.7058L16.9126 28.6369C16.5339 28.3011 15.9641 28.3011 15.5855 28.6369L14.3803 29.7058C13.8921 30.1388 13.1266 29.9957 12.8278 29.4156L12.0901 27.9835C11.8583 27.5336 11.327 27.3277 10.8526 27.5041L9.34267 28.0655C8.73098 28.2929 8.06889 27.8829 7.99981 27.234L7.82929 25.6321C7.77572 25.1289 7.35461 24.745 6.84856 24.7381L5.2378 24.7161C4.58525 24.7072 4.11597 24.0857 4.28598 23.4557L4.70563 21.9004C4.83747 21.4117 4.58348 20.9017 4.1141 20.7124L2.62004 20.11C2.01479 19.866 1.80168 19.117 2.18781 18.5909L3.14097 17.2922C3.44042 16.8842 3.38784 16.3168 3.01852 15.9708L1.84296 14.8694C1.36673 14.4232 1.43858 13.6478 1.9887 13.2967L3.34662 12.43C3.77324 12.1577 3.92918 11.6097 3.7098 11.1536L3.0115 9.70189C2.72861 9.11379 3.07572 8.4167 3.71551 8.28804L5.29481 7.97045C5.79098 7.87067 6.13438 7.41594 6.09456 6.91141L5.96784 5.30548C5.9165 4.6549 6.49198 4.13028 7.13505 4.24143L8.72243 4.51579C9.22114 4.60198 9.70562 4.30201 9.85075 3.81717L10.3127 2.27391C10.4999 1.64871 11.226 1.36741 11.7855 1.70335L13.1666 2.53261C13.6004 2.79314 14.1606 2.68844 14.4711 2.28876L15.4593 1.01659Z" fill="white"/>
<path d="M21.1717 15.066C21.2622 15.1574 21.313 15.2809 21.313 15.4096C21.313 15.5383 21.2622 15.6617 21.1717 15.7532L16.8316 20.0932C16.7391 20.1817 16.6161 20.2313 16.488 20.2319C16.424 20.2316 16.3607 20.2193 16.3012 20.1957C16.2134 20.1588 16.1385 20.0968 16.086 20.0174C16.0334 19.938 16.0055 19.8448 16.0058 19.7496V15.8918H11.6658C11.5379 15.8918 11.4152 15.841 11.3248 15.7506C11.2343 15.6601 11.1835 15.5375 11.1835 15.4096C11.1835 15.2817 11.2343 15.159 11.3248 15.0686C11.4152 14.9782 11.5379 14.9274 11.6658 14.9274H16.0058V11.0695C16.0055 10.9743 16.0334 10.8812 16.086 10.8018C16.1385 10.7224 16.2134 10.6604 16.3012 10.6235C16.3902 10.5887 16.4873 10.5799 16.5812 10.5981C16.6751 10.6162 16.7619 10.6605 16.8316 10.726L21.1717 15.066Z" fill="#030211"/>
</svg>
