<svg width="19" height="18" viewBox="0 0 19 18" fill="none" xmlns="http://www.w3.org/2000/svg">
<path d="M18.2631 8.78556C18.422 8.94593 18.5111 9.16254 18.5111 9.38827C18.5111 9.614 18.422 9.8306 18.2631 9.99098L10.6499 17.6042C10.4875 17.7594 10.2718 17.8464 10.0472 17.8474C9.93494 17.8469 9.82376 17.8254 9.71942 17.7839C9.56546 17.7192 9.4341 17.6104 9.3419 17.4711C9.2497 17.3319 9.20077 17.1685 9.20129 17.0015V10.2342H1.5881C1.36375 10.2342 1.14859 10.1451 0.989949 9.98642C0.83131 9.82778 0.742188 9.61262 0.742188 9.38827C0.742188 9.16392 0.83131 8.94876 0.989949 8.79012C1.14859 8.63148 1.36375 8.54236 1.5881 8.54236H9.20129V1.77507C9.20077 1.60807 9.2497 1.44464 9.3419 1.3054C9.4341 1.16615 9.56546 1.05732 9.71942 0.992602C9.87566 0.931658 10.046 0.916198 10.2106 0.948009C10.3753 0.97982 10.5276 1.0576 10.6499 1.17236L18.2631 8.78556Z" fill="#030211"/>
</svg>
